<?xml version="1.0" encoding="utf-8"?>
<!-- Generator: Adobe Illustrator 22.0.0, SVG Export Plug-In . SVG Version: 6.00 Build 0)  -->
<svg version="1.1" id="Layer_1" xmlns="http://www.w3.org/2000/svg" xmlns:xlink="http://www.w3.org/1999/xlink" x="0px" y="0px"
	 viewBox="0 0 50 50" style="enable-background:new 0 0 50 50;" xml:space="preserve">
<style type="text/css">
	.st0{opacity:3.000000e-02;}
	.st1{fill:none;stroke:#FFFFFF;stroke-width:0.25;stroke-linecap:round;stroke-linejoin:round;stroke-miterlimit:10;}
</style>
<g class="st0">
	<path class="st1" d="M26,27.4c1,3.1,0,6.2-2,8.2c-3,5.1-10,4.1-15.4,7.2c4.2,3,4.3-1.9,0,0c4.2,3,9.9,3.9,14,7"/>
	<path class="st1" d="M8.7,42.9c0.3-0.1,0.5,0,0.8,0c0.6,0,1.2,0.1,1.9,0.1c0.9,0.1,1.9,0.1,2.8,0.2c0.9,0.1,1.9,0.1,2.8,0.2
		c0.8,0.1,1.6,0.1,2.4,0.2c0.8,0.1,1.6,0.1,2.4,0.2c0.9,0.1,1.9,0.1,2.8,0.2c0.8,0.1,1.6,0.1,2.5,0.2c0.7,0,1.4,0.1,2.1,0.1"/>
	<path class="st1" d="M26.9,1.7c-0.6,0.2-1.2,0.3-1.8,0.4c-0.8,0.2-1.6,0.4-2.4,0.6c-1.1,0.3-2.2,0.5-3.3,0.8
		C17.7,4,16,4.4,14.2,4.8c-0.4,0.1-0.8,0.2-1.3,0.3c-0.1,0-0.1,0.1-0.2,0.1"/>
	<path class="st1" d="M4.5,19c-0.1,0.7-0.2,1.4-0.4,2.2c-0.4,2.1-0.8,4.1-1.1,6.2c-0.3,1.6-0.6,3.3-0.9,4.9c-0.1,0.5-0.1,0.9,0,1.4
		c0.3,1.1,0.5,2.3,0.8,3.4c0.2,1.1,0.5,2.2,0.7,3.3c0.2,1,0.5,2.2,0.7,3.2c0.1,0.3,0.1,0.5,0.2,0.8"/>
	<path class="st1" d="M29.1,44.4c0.4,0,0.7,0,1.1,0.1c0.7,0.1,1.4,0.1,2,0.2c0.9,0.1,1.8,0.1,2.8,0.2c0.7,0.1,1.3,0.1,2,0.2
		c0.7,0.1,1.3,0.1,2,0.2c0.8,0.1,1.7,0.1,2.5,0.2s1.7,0.1,2.5,0.2c0.7,0.1,1.5,0.1,2.2,0.2c0.8,0.1,1.5,0.1,2.3,0.2
		c0.3,0,0.7,0.1,1,0.1c0.1,0,0.1,0,0.2,0"/>
	<path class="st1" d="M36,10.5c-0.3-0.1-0.7-0.2-1-0.2c-1.3-0.3-2.6-0.5-3.9-0.7c-1.1-0.3-2.2-0.5-3.3-0.7c-0.9-0.2-1.8-0.3-2.7-0.5
		c-0.3-0.1-0.7-0.1-1-0.2"/>
	<path class="st1" d="M25.2,36.4c0.6,0.4,1.3,0.9,1.9,1.3c1.6,1,3.1,2.2,4.7,3.2c1.7,1.1,3.4,2.3,5.1,3.5c0,0,0,0,0.1,0"/>
	<path class="st1" d="M11.9,31.3c0.5,0.4,0.9,0.8,1.3,1.3c-0.4,0.5-0.8,1-1.2,1.6c-1,1.3-1.9,2.6-2.9,3.9c-0.9,1.2-1.8,2.4-2.6,3.6
		c-0.6,0.8-1.2,1.6-1.9,2.6c0,0-0.1,0.1,0,0.1"/>
	<path class="st1" d="M24.8,36c0,0.1,0.2,0.1,0.1,0.2c-0.8-0.2-1.5-0.5-2.3-0.7c-1.2-0.4-2.4-0.7-3.6-1.1c-1.4-0.4-2.8-0.9-4.1-1.3
		c-0.6-0.2-1.2-0.4-1.8-0.5"/>
	<path class="st1" d="M0,32.3c0.1,0.3,0.2,0.6,0.3,0.9c0.5,1.4,1,2.8,1.5,4.2s1.1,3,1.7,4.4C3.7,42.4,4,43,4.2,43.6
		c0,0,0,0.1,0.1,0.1"/>
	<path class="st1" d="M39.3,18.9c0.1,0.6,0.3,1.2,0.4,1.8c0.3,1.2,0.6,2.5,0.9,3.6c0.2,0.9,0.5,2,0.7,2.9S41.7,29,42,30
		c0,0.1,0,0.2,0.1,0.3c0.8-0.6,1.5-1.1,2.3-1.7c1-0.7,2-1.5,3-2.3c0.1-0.1,0.2-0.2,0.3-0.3"/>
	<path class="st1" d="M50,12.6c-1.1,0.6-2.1,1.2-3.2,2c-0.4,0.2-0.3,0.1-0.3,0.6c0.1,1.2,0.2,2.4,0.4,3.6c0.1,1,0.2,2.1,0.3,3.1
		c0.1,1.1,0.3,2.3,0.4,3.3c0,0.3,0.1,0.6,0.1,0.9"/>
	<path class="st1" d="M36.3,10c0,0.2-0.1,0.3,0,0.5c1.2,0.5,2.4,0.9,3.6,1.4c1,0.4,1.9,0.8,2.9,1.2c0.6,0.3,1.3,0.5,1.9,0.8
		c1.7,0.6,3.3,1.4,4.9,2.4c0.1,0.1,0.3,0.1,0.5,0.2"/>
	<path class="st1" d="M35.5-0.3c0,0.6,0.1,1.1,0.1,1.7C35.7,2.2,35.7,3,35.8,4c0,0.7,0.1,1.3,0.1,2.1c0.1,1,0.2,2.1,0.2,3.2
		c0,0.3,0,0.6,0.1,0.9"/>
	<path class="st1" d="M13.1,32.5c-0.4,0.1-0.8,0-1.2,0.1c-1.2,0.1-2.5,0.1-3.7,0.1c-0.9,0-1.8,0.1-2.7,0.1c-1,0-2.1,0.1-3.1,0.1
		c-0.1,0-0.2,0-0.3,0"/>
	<path class="st1" d="M50,6.6c-0.8-0.2-1.7-0.5-2.5-0.7c-0.5-0.1-0.8-0.4-1.2-0.6c-0.2-0.1-0.4-0.3-0.7-0.4c-0.1,0-0.1-0.1-0.3,0
		c-1.5,0.9-3,1.8-4.5,2.8c-1.3,0.8-2.6,1.5-4,2.4c-0.2,0.1-0.4,0.3-0.6,0.3"/>
	<path class="st1" d="M41.9,30.3c-0.6-0.5-1.3-0.8-1.9-1.2c-1.5-1-3.1-2.1-4.6-3.1c-0.6-0.4-1.2-0.8-1.8-1.1
		c-0.7-0.4-1.5-0.7-2.2-1.1c-1.1-0.5-2.2-1-3.3-1.6c-1.3-0.6-2.6-1.2-3.9-2h-0.1c0.2,0.6,0.3,1.2,0.5,1.8c0.3,1.1,0.6,2.2,0.9,3.3
		c0.2,0.7,0.4,1.4,0.5,2.1"/>
	<path class="st1" d="M25.2,36.3c0.4,0,0.7,0.1,1.1,0.1c1.3,0.2,2.6,0.4,3.9,0.6c1.1,0.2,2.2,0.3,3.3,0.5c0.4,0,0.7,0.1,1.1,0.1
		c0.4,0,0.8,0.1,1.1,0.2c0.7,0.1,1.4,0.2,2.2,0.3c0.6,0.1,1.2,0.2,1.8,0.2c1.2,0.2,2.4,0.4,3.6,0.5c0.1,0,0.2,0,0.3,0"/>
	<path class="st1" d="M34.7,29.4c-1.3-0.3-2.5-0.6-3.8-0.9c-1.1-0.2-2.2-0.5-3.3-0.7c-0.4-0.1-0.8-0.2-1.2-0.3
		c-0.5-0.2-1-0.1-1.5-0.2c-0.8-0.1-1.5-0.1-2.3-0.1s-1.5-0.1-2.3-0.1c-0.9-0.1-1.7-0.1-2.6-0.2c-0.3,0-0.5-0.1-0.8,0"/>
	<path class="st1" d="M34.5-0.3c-0.3,0-0.6,0.1-0.8,0.2c-1.2,0.3-2.3,0.6-3.5,1c-1,0.3-2,0.6-3,0.8c-0.1,0-0.2,0-0.2,0.1
		c-0.4,0.8-0.8,1.6-1.1,2.5c-0.4,0.9-0.9,2-1.3,2.9c-0.1,0.1-0.1,0.3-0.2,0.4c-0.2,0.5-0.6,0.9-1,1.2c-0.3,0.2-0.6,0.5-0.8,0.7
		C22,10,21.5,10.5,21,11c-0.2,0.1-0.2,0.3-0.1,0.5c0.7,1.6,1.3,3.3,1.9,4.9c0.5,1.1,0.9,2.4,1.4,3.5c2.4-1.2,4.8-2.5,7.2-3.7
		c0.2,0.8,0.4,1.5,0.6,2.4c0.3,1.1,0.5,2.2,0.8,3.3c0.2,0.7,0.4,1.4,0.5,2.2c0,0.1,0,0.2,0.1,0.3"/>
	<path class="st1" d="M36,10.5c-0.7,0.2-1.4,0.3-2.1,0.5c-2,0.5-4.1,1-6.1,1.5c-0.1,0-0.1,0-0.2,0.1"/>
	<path class="st1" d="M13.2,32.6c0.1,0.1,0,0.2,0,0.2c0,2.7,0,5.3,0,8"/>
	<path class="st1" d="M33.3,24.6c0.2,0.6,0.3,1.1,0.5,1.7c0.3,0.9,0.6,2,1,3c0.1,0.3,0,0.6,0,0.9s0,0.7,0,1c0,1.3-0.1,2.8-0.1,4.1
		c0,0.7,0,1.5-0.1,2.3"/>
	<path class="st1" d="M36.3,10.5c0.2,0.6,0.4,1.2,0.6,1.8c0.4,1.2,0.9,2.4,1.3,3.6c0.3,0.7,0.6,1.5,0.8,2.3c0.1,0.5,0.5,0.7,0.8,1
		c0.5,0.4,1.1,0.9,1.6,1.3c0.6,0.5,1.3,1,1.9,1.5c0.5,0.4,1.1,0.9,1.6,1.3"/>
	<path class="st1" d="M25,36.3c0.4,0.8,0.8,1.5,1.2,2.4c0.6,1.2,1.2,2.4,1.8,3.6c0.3,0.7,0.6,1.3,1,2.1c0.1,0.1,0.1,0.2,0,0.3
		c-0.4,1.5-0.8,3.2-1.3,4.7c-0.1,0.3-0.1,0.6-0.1,1"/>
	<path class="st1" d="M49.6,46.4c-1.1,0.3-2.1,0.5-3.2,0.8c-1.7,0.4-3.3,0.8-5,1.2c-1.3,0.3-2.5,0.6-3.8,0.9h-0.1"/>
	<path class="st1" d="M0,16.5c1.3,0.7,2.6,1.3,3.9,2.1c0.4,0.2,0.8,0.3,1.2,0.3c1.9,0,3.8,0,5.7,0c0.8,0,1.6,0,2.4,0
		c0.1,0,0.2,0,0.3,0c0.3,0.6,0.5,1.1,0.8,1.7c0.4,1,0.9,2.1,1.3,3c0.4,1,0.9,2,1.3,3c0.1,0.2,0.1,0.3,0,0.4c-0.7,1-1.3,2.1-2,3
		c-0.1,0.2-0.3,0.4-0.4,0.6"/>
	<path class="st1" d="M13.5,18.9c-0.4,0.5-0.9,1.1-1.3,1.6c-0.7,0.9-1.5,1.8-2.2,2.8c-0.7,0.8-1.4,1.7-2,2.6
		c-0.2,0.3-0.5,0.6-0.7,0.9c3.3,0,6.6,0,9.8,0c1.4,1.6,2.7,3.2,4.1,4.8"/>
	<path class="st1" d="M27.5,12.6c-0.2,0.1-0.4,0-0.6-0.1c-0.9-0.1-1.8-0.3-2.7-0.5c-1.1-0.2-2.1-0.4-3.2-0.6c-0.6-0.1-1-0.4-1.5-0.6
		c-1.1-0.5-2.1-1.1-3.2-1.6c-0.7-0.3-1.3-0.6-2-1C14.2,8,14.2,8,14.1,7.9c-0.5-0.9-1-1.7-1.5-2.7c-0.1-0.1-0.1-0.1-0.2-0.2
		c-1-0.7-2.1-1.4-3.1-2.3C8.1,1.9,6.8,1.1,5.6,0.3C5.3,0.1,5-0.1,4.7-0.3"/>
	<path class="st1" d="M4.5,19c0.2,0.5,0.4,1,0.5,1.5c0.4,1.1,0.8,2.3,1.2,3.4c0.3,0.9,0.6,1.8,0.9,2.8"/>
	<path class="st1" d="M12.1,11.1c-0.6,0.6-1.3,1.2-1.9,2c-1,1-2,2.1-3,3.1c-0.8,0.9-1.7,1.7-2.6,2.7C4.4,19,4.2,19.3,4,19.5
		c-0.2,0.3-0.5,0.5-0.7,0.7s-0.5,0.5-0.7,0.7C2,21.4,1.4,22,0.8,22.7C0.5,23,0.3,23.3,0,23.6"/>
	<path class="st1" d="M8.5,42.9c0.7,2.2,1.6,4.4,2.3,6.7"/>
	<path class="st1" d="M29.9,44.9c1.4,0.8,8,3.7,7.5,5.3"/>
	<path class="st1" d="M45.4,4.8c-0.5-0.3-1-0.7-1.5-1c-1.6-1.1-3.2-2.3-4.8-3.4c-0.4-0.2-0.7-0.5-1.1-0.7"/>
	<path class="st1" d="M43.7,39.1c0.2,0.3,0.5,0.6,0.8,0.9c0.6,0.7,1.2,1.4,1.8,2.2c0.5,0.5,1,1.1,1.4,1.6c0.6,0.7,1.2,1.3,1.8,2.1
		c0.1,0.1,0.2,0.2,0.3,0.3"/>
	<path class="st1" d="M33.1,24.6c-0.6,0.2-1.2,0.5-1.8,0.7c-1.4,0.6-2.9,1-4.3,1.6c-0.3,0.1-0.6,0.2-0.9,0.4"/>
	<path class="st1" d="M45.5,4.9c0.1,0.8,0.2,1.6,0.3,2.5c0.1,1.4,0.3,2.8,0.4,4.2c0.1,0.8,0.2,1.5,0.2,2.4"/>
	<path class="st1" d="M6.7,8.6C6.4,8.8,6,9,5.7,9.2c-1.8,1-3.6,2.2-5.4,3.2c-0.1,0-0.2,0.1-0.2,0.1"/>
	<path class="st1" d="M12.8,5.2c0.5,0.1,1.1,0.3,1.6,0.4c1.4,0.4,2.8,0.7,4.2,1.1c1,0.3,2,0.5,3,0.8c0.7,0.2,1.3,0.4,2,0.5
		c0,0,0.1,0,0.1,0.1"/>
	<path class="st1" d="M0,6.6C0.4,6.7,0.9,6.9,1.3,7c1.2,0.3,2.4,0.7,3.6,1c0.6,0.2,1.2,0.3,1.9,0.5"/>
	<path class="st1" d="M12.2,11.1c1.2,0,2.5,0.1,3.7,0.1c0.6,0,1.2,0,1.8,0.1c0.8,0,1.6,0.1,2.4,0.1c0.1,0,0.2,0,0.3,0"/>
	<path class="st1" d="M42.1,30.5c0,0.4,0.1,0.7,0.2,1.1c0.2,0.8,0.3,1.7,0.5,2.6c0.2,1,0.4,2.1,0.6,3.1c0.1,0.6,0.2,1.2,0.3,1.8
		c0.6,0.1,1.3,0.1,1.9,0.2c0.8,0.1,1.6,0.2,2.4,0.3c0.7,0.1,1.4,0.2,2.1,0.2"/>
	<path class="st1" d="M23.7,8.2c-0.7,0-1.4,0-2.1,0c-0.3,0-0.6,0-0.8,0c-1.2,0-2.5,0-3.7,0c-0.8,0-1.6,0-2.3,0c-0.1,0-0.2,0-0.2,0"
		/>
	<path class="st1" d="M14.2,8.1c-0.3,0-0.7,0.1-1,0.1c-0.9,0.1-1.7,0.1-2.6,0.1c-0.7,0-1.4,0.1-2.1,0.1c-0.5,0-1,0-1.4,0.1
		c-0.1,0-0.1,0-0.2,0"/>
	<path class="st1" d="M48.9-0.3c-0.4,1.3-0.8,2.8-1.2,4.1c-0.2,0.6-0.3,1.2-0.5,1.7c-0.1,0.3-0.1,0.6-0.1,1c-0.1,1-0.1,1.9-0.2,2.8
		c-0.1,1-0.1,2.1-0.2,3.1c0,0.5,0,1-0.1,1.4c0,0.3-0.1,0.5-0.1,0.8"/>
	<path class="st1" d="M24,20.1c-3.5-0.4-7-0.8-10.5-1.2c0.6-0.9,1.1-1.8,1.7-2.7"/>
	<path class="st1" d="M46.4,14.8c-0.8,0.5-1.7,1-2.6,1.4c-1.2,0.6-2.3,1.3-3.5,2.1c-0.3,0.2-0.6,0.3-0.9,0.5c-0.1,0.1-0.3,0.1-0.5,0
		c-0.9-0.3-1.7-0.5-2.6-0.8c-0.1,0-0.1,0-0.2,0"/>
	<path class="st1" d="M37.4-0.3c-0.1,0.7-0.1,1.5-0.2,2.3c-0.1,0.9-0.2,1.8-0.3,2.7c-0.1,0.7-0.1,1.4-0.2,2.1
		c-0.2,1.1-0.3,2.3-0.4,3.3"/>
	<path class="st1" d="M36.1,10.5c0.1,0,0.1,0.1,0,0.1c-0.1,0.2-0.3,0.4-0.4,0.5c-0.9,1-1.8,2.2-2.7,3.2c-0.5,0.6-1.1,1.2-1.7,2"/>
	<path class="st1" d="M47.9,26.6c-0.1,0.2,0.1,0.3,0.1,0.5c0.4,1.1,0.8,2.3,1.3,3.4c0.2,0.5,0.4,1.1,0.6,1.6v0.1"/>
	<path class="st1" d="M18.1,17.4c0.9,0.4,1.9,0.8,2.8,1.3c0.9,0.4,1.9,0.8,2.8,1.2c0,0,0.1,0,0.1,0.1"/>
	<path class="st1" d="M29.2,44.5c0,0.1,0.1,0.1,0.2,0.2c0.7,0.5,1.4,1.1,2.1,1.6c0.8,0.6,1.7,1.2,2.5,2c0.5,0.4,1.1,0.7,1.5,1.2"/>
	<path class="st1" d="M12.6,5.2c-0.4,0.3-0.9,0.5-1.3,0.8C9.9,6.7,8.5,7.6,7.1,8.4c0,0-0.2,0-0.1,0.1"/>
	<path class="st1" d="M10.8-0.3c0.5,1.5,1,3,1.5,4.5c0.1,0.3,0.2,0.6,0.3,0.9"/>
	<path class="st1" d="M0,46.5c1.5,1.1,3.5,2.1,4.7,3.4"/>
	<path class="st1" d="M20.5,11.4c-0.3,0.4-0.7,0.6-1.1,0.9c-0.4,0.4-0.8,0.7-1.2,1c-0.7,0.6-1.4,1.1-2,1.7c-0.3,0.3-0.7,0.6-1,0.9"
		/>
	<path class="st1" d="M48.1-0.3c-0.7,1.3-1.3,2.6-2,3.9C46,4,45.8,4.4,45.5,4.8"/>
	<path class="st1" d="M6.4,27.8c-0.8,0.9-1.6,2-2.5,2.9c-0.6,0.7-1.2,1.4-1.8,2.2c0,0,0,0-0.1,0"/>
	<path class="st1" d="M24,20.1c-0.4,0.3-0.7,0.7-1.1,1s-0.8,0.7-1.2,1.1c-0.6,0.5-1.1,1-1.6,1.5c-0.4,0.3-0.7,0.7-1.1,1.1"/>
	<path class="st1" d="M7.3,26.8c0.6,0.5,1.1,1,1.7,1.6c0.4,0.4,0.8,0.8,1.2,1.1c0.6,0.5,1.1,1.1,1.6,1.5"/>
	<path class="st1" d="M31.3,16.4c1.3,0.4,2.5,0.7,3.8,1.1c0.2,0.1,0.5,0.1,0.7,0.2"/>
	<path class="st1" d="M27,1.7c-1.2-0.6-2.4-1.1-3.6-1.6c-0.3-0.1-0.6-0.3-1-0.4"/>
	<path class="st1" d="M1.8-0.3C2,0.1,2.3,0.5,2.5,0.9c0.5,0.9,1,1.8,1.6,2.8c0,0.1,0.1,0.2,0.2,0.3"/>
	<path class="st1" d="M26.4,27.9c1.2,1.4,2.4,2.9,3.6,4.3"/>
	<path class="st1" d="M30.9,33.3c0.9,1.1,1.8,2.3,2.7,3.4c0.3,0.3,0.5,0.6,0.7,0.9"/>
	<path class="st1" d="M24.1,8.3c0.2,0.3,0.4,0.6,0.7,0.9c0.9,1,1.7,2.2,2.6,3.2c0.1,0.1,0.1,0.2,0.2,0.2"/>
	<path class="st1" d="M34.8,29.4c0.6,0,1.2,0.1,1.9,0.2c1.7,0.2,3.3,0.4,5,0.6c0.1,0,0.2-0.1,0.3,0"/>
	<path class="st1" d="M46.3,35.2c0.7,0.8,1.5,1.6,2.2,2.5c0.5,0.5,1,1.1,1.5,1.7"/>
	<path class="st1" d="M4.5,4.4c0.5,1,1.1,2,1.6,2.9C6.3,7.7,6.5,8,6.7,8.4C6.8,8.6,6.9,8.5,7,8.5"/>
	<path class="st1" d="M49.7,46.8c-0.6,0.9-1.1,1.9-1.5,2.9"/>
	<path class="st1" d="M49.8,46.4c-0.3,1-0.7,2-0.8,3.1"/>
	<path class="st1" d="M39.2,18.9c-0.9,0.8-1.7,1.6-2.6,2.5c-0.4,0.4-0.8,0.8-1.2,1.1"/>
	<path class="st1" d="M0,46.6c0.5,0.9,1,1.8,1.5,2.7"/>
	<path class="st1" d="M27.1,1.8c1.2,1.1,2.3,2.3,3.5,3.3"/>
	<path class="st1" d="M42,30.4c-0.8,0.8-1.7,1.6-2.5,2.5c-0.3,0.3-0.5,0.5-0.8,0.8"/>
	<path class="st1" d="M47.7,26.1c0.2,0.5,0.6,0.9,0.9,1.4c0.4,0.7,0.9,1.4,1.4,2.3"/>
	<path class="st1" d="M0,29.7c0.2,0.4,0.4,0.7,0.6,1c0.4,0.7,0.8,1.3,1.2,2c0,0.1,0.1,0.1,0.1,0.1"/>
	<path class="st1" d="M40.3,41.8c-0.8,0.6-1.7,1.3-2.5,2c-0.1,0.1-0.1,0.1-0.2,0.2"/>
	<path class="st1" d="M30.8,5.3c0.4,0.3,0.7,0.6,1.1,1c0.5,0.5,1,0.9,1.5,1.4"/>
	<path class="st1" d="M13.6,13.5c0.5,0.8,1,1.5,1.5,2.4c0,0.1,0.1,0.1,0.1,0.1"/>
	<path class="st1" d="M22.7,33.5c0.6,0.7,1.2,1.4,1.8,2.2"/>
	<path class="st1" d="M27.6-0.3c-0.2,0.2-0.2,0.5-0.3,0.8c-0.1,0.4-0.2,0.8-0.3,1.2"/>
	<path class="st1" d="M28.4,13.4c0.6,0.6,1.2,1.2,1.8,1.8c0.1,0.1,0.2,0.2,0.2,0.2"/>
	<path class="st1" d="M43.6,39.1c-0.7,0.5-1.3,1-2,1.5"/>
	<path class="st1" d="M18.9,24.9c-0.5,0.5-1.1,1-1.6,1.5c-0.1,0.1-0.2,0.2-0.3,0.2"/>
	<path class="st1" d="M33.5,7.9c0.6,0.6,1.2,1.1,1.8,1.7"/>
	<path class="st1" d="M37.3,49.4c-0.5,0.1-1,0.1-1.5,0.1c-0.1,0-0.2,0-0.4,0"/>
	<path class="st1" d="M6.4,43.7c-0.5,0.2-1.1,0.4-1.6,0.6c-0.1,0-0.2,0-0.2,0.1"/>
	<path class="st1" d="M8.6,42.8c-0.6,0.1-1.1,0.4-1.7,0.6"/>
	<path class="st1" d="M36,36.3c-0.5,0.4-0.9,0.9-1.4,1.3"/>
	<path class="st1" d="M15.3,16.1c0.4,0.2,0.9,0.4,1.4,0.6"/>
	<path class="st1" d="M21.4,32c0.3,0.4,0.7,0.8,1,1.2"/>
	<path class="st1" d="M37.5,34.8c-0.4,0.4-0.8,0.7-1.2,1.1"/>
	<path class="st1" d="M42,30.4c0.4,0.4,0.7,0.8,1.1,1.1"/>
	<path class="st1" d="M35.3,22.6c-0.4,0.3-0.7,0.7-1.1,1"/>
	<path class="st1" d="M0.2,39.5c0.4,0.4,0.8,0.9,1.2,1.3"/>
	<path class="st1" d="M14.3,30.8c-0.2,0.3-0.4,0.7-0.7,1"/>
	<path class="st1" d="M45.3,24c0.3,0.3,0.6,0.5,1,0.8"/>
	<path class="st1" d="M49.3,24.3c-0.3,0.3-0.5,0.6-0.8,0.8"/>
	<path class="st1" d="M34.1,23.8c-0.3,0.3-0.6,0.5-0.9,0.8"/>
	<path class="st1" d="M2.6,42.3C2.8,42.5,3,42.8,3.3,43"/>
	<path class="st1" d="M44.7,33.3c0.2,0.3,0.5,0.5,0.7,0.8"/>
	<path class="st1" d="M3.7,43.5C3.8,43.7,4,43.8,4.2,44c0,0.1,0.1,0.2,0.2,0.1"/>
	<path class="st1" d="M35.4,9.7c0.3,0.2,0.5,0.5,0.7,0.7"/>
	<path class="st1" d="M30.6,15.7c0.2,0.2,0.5,0.5,0.7,0.7"/>
	<path class="st1" d="M48.3,25.3c-0.2,0.2-0.4,0.4-0.7,0.6"/>
	<path class="st1" d="M47,25.4c0.2,0.2,0.5,0.4,0.7,0.6"/>
	<path class="st1" d="M27.7,12.7c0.2,0.2,0.4,0.4,0.6,0.6"/>
	<path class="st1" d="M37.1,44.3c-0.2,0.1-0.2,0.2-0.2,0.4c0,0.1,0,0.3,0,0.4"/>
	<path class="st1" d="M7.2,26.8C7,27,6.9,27.2,6.7,27.4"/>
	<path class="st1" d="M50,23.6c-0.2,0.2-0.3,0.3-0.5,0.5"/>
	<path class="st1" d="M49.6,46.4c0.1,0,0.2,0,0.4,0c0,0.1,0,0.2,0,0.2"/>
	<path class="st1" d="M13.4,32.2c-0.1,0.1-0.2,0.2-0.2,0.4"/>
	<path class="st1" d="M0.4,39.8c-0.1,0.1-0.3,0-0.4,0"/>
	<path class="st1" d="M26.1,27.4c0.1,0.1,0.2,0.2,0.3,0.4"/>
	<path class="st1" d="M24,8.2c-0.1,0-0.2,0-0.3,0"/>
</g>
</svg>
