<?xml version="1.0" encoding="utf-8"?>
<!-- Generator: Adobe Illustrator 22.0.0, SVG Export Plug-In . SVG Version: 6.00 Build 0)  -->
<svg version="1.1" id="Layer_1" xmlns="http://www.w3.org/2000/svg" xmlns:xlink="http://www.w3.org/1999/xlink" x="0px" y="0px"
	 viewBox="0 0 100 100" style="enable-background:new 0 0 100 100;" xml:space="preserve">
<style type="text/css">
	.st0{fill:#6000F4;}
</style>
<path class="st0" d="M97,33.2c0,0.2,0,0.3,0,0.5c-1.4,1.4-2.5,8.8-1.3,10.2c0.3,0.4,0.9,0.4,1.3,0.7c0,0.5,0,1,0,1.5
	c-1.1,0.9-2.2,1.9-3.3,2.8c-1.4,1.2-2.4,7.4-1.1,8.5c2,1.7,0.9,2.5-0.4,3.6c-9.9,8.4-19.7,16.9-29.7,25.3c-0.9,0.8-2.5,1.2-3.7,1
	c-15.9-3.2-31.8-6.6-47.7-10c-1.3-0.3-2.8-1.4-3.5-2.6c-3-4.6-1.9-9.1,2.5-13.1c-0.4-3.3-0.7-6.3-1.1-9.5c-2.9-1-3-1.1-5.1-6
	c0-1.5,0-3.1,0-4.7c0.8-2.5,2.5-4.1,4.7-5.6c10.8-7.4,21.6-15,32.4-22.6c1.8-1.3,3.5-1.5,5.5-1.1c9.2,1.7,18.4,3.4,27.6,5
	c5,0.9,10,1.8,15,2.7c1.2,0.2,3.2,0.6,1.9,2.3c-2.1,2.8-0.7,5.7-1.1,8.2C92.5,31.4,94.8,32.3,97,33.2z M11.4,74.6
	c15.2,3.2,30.4,6.4,45.9,9.6c0-2.5-0.1-4.7,0-6.9c0.1-1.8-0.4-2.5-2.3-2.9c-11.2-2.3-22.4-4.7-33.5-7c-3.3-0.7-6.6-1.3-10.1-2
	C11.4,68.7,11.4,71.5,11.4,74.6z M9.3,49.2c15.2,3.2,30.4,6.4,45.9,9.6c0-2.7-0.1-4.9,0-7.2c0.1-1.6-0.4-2.2-2-2.5
	c-8.9-1.8-17.8-3.7-26.7-5.6c-5.7-1.2-11.3-2.4-17.2-3.6C9.3,43.1,9.3,46,9.3,49.2z M14.7,61c15.1,3.2,30.2,6.3,45.6,9.6
	c0-3.2,0-6.1,0-8.6c-1.3,0-2.4,0.2-3.5,0c-9.3-2-18.6-4-27.8-5.9c-4.7-1-9.4-1.9-14.3-2.9C14.7,55.9,14.7,58.4,14.7,61z M87.2,26
	c-0.6,0.4-0.9,0.6-1.1,0.8c-9.2,7.8-18.3,15.5-27.5,23.3c-0.3,0.3-0.6,0.8-0.7,1.2c-0.1,2.5,0,4.9,0,7.5c0.5-0.2,0.8-0.2,1-0.3
	C68,50.8,77.2,43,86.3,35.2c0.4-0.3,0.8-1,0.8-1.5C87.2,31.3,87.2,28.8,87.2,26z M63.3,71.2C73.1,62.8,82.4,55,91.7,47
	c0.4-0.4,0.8-1,0.9-1.5c0.1-2.4,0-4.9,0-7.6c-0.6,0.3-0.9,0.4-1,0.5C82.3,46.2,73.2,54,64,61.8c-0.4,0.3-0.7,1-0.7,1.5
	C63.2,65.7,63.3,68.1,63.3,71.2z M60,84.8c1.5-1.2,2.3-1.9,3.2-2.6c7.5-6.4,14.9-13.1,22.7-19.1c3.6-2.8,3.9-6,3.3-10.1
	c-0.8,0.7-1.5,1.2-2.1,1.7C80.2,60.4,73.4,66.3,66.6,72c-1.1,0.9-2.5,1.2-3.7,2c-1,0.7-2.6,1.6-2.7,2.6C59.8,79.1,60,81.6,60,84.8z"
	/>
</svg>
