<?xml version="1.0" encoding="utf-8"?>
<!-- Generator: Adobe Illustrator 22.0.0, SVG Export Plug-In . SVG Version: 6.00 Build 0)  -->
<svg version="1.1" id="Layer_1" xmlns="http://www.w3.org/2000/svg" xmlns:xlink="http://www.w3.org/1999/xlink" x="0px" y="0px"
	 viewBox="0 0 100 100" style="enable-background:new 0 0 100 100;" xml:space="preserve">
<style type="text/css">
	.st0{fill:#9800B4;}
</style>
<g>
	<path class="st0" d="M3,49.3c1.5-1.5,2.9-3.1,4.4-4.6c3.7-3.7,7.5-7.5,11.2-11.2c2.8-2.8,5.7-5.7,8.5-8.5c1.2-1.1,1.9-1.1,3.1,0
		c0.7,0.7,1.4,1.4,2.1,2.1c0.8,0.8,0.8,1.7,0,2.5c-2.9,3-5.9,5.9-8.8,8.9c-3.6,3.6-7.1,7.2-10.7,10.7c-0.2,0.2-0.3,0.3-0.6,0.7
		c1.3,1.3,2.6,2.5,3.9,3.7c5.3,5.3,10.7,10.6,16,16c1.1,1.1,1.1,1.9,0,3.1c-0.7,0.7-1.4,1.4-2.1,2.1c-0.9,0.8-1.7,0.8-2.5,0
		c-2.1-2.1-4.2-4.2-6.3-6.3c-3.8-3.8-7.5-7.5-11.3-11.3c-2-2-4-4-5.9-5.9c-0.5-0.3-0.7-0.7-1-1.1C3,49.9,3,49.6,3,49.3z"/>
	<path class="st0" d="M97,50.2c-1.4,1.5-2.9,3.1-4.3,4.5c-3.4,3.5-6.9,6.9-10.4,10.4c-3.1,3.1-6.3,6.3-9.4,9.4
		c-1.1,1.1-1.9,1.1-2.9,0c-0.7-0.7-1.5-1.4-2.2-2.2c-0.8-0.8-0.8-1.7,0-2.5c2.9-3,5.9-5.9,8.8-8.9c3.6-3.6,7.3-7.3,10.9-10.9
		c0.1-0.1,0.2-0.2,0.3-0.4c-1-1-1.9-1.9-2.9-2.9C79.3,41.2,73.7,35.6,68.1,30c-1.2-1.2-1.2-1.9,0-3.1c0.7-0.7,1.4-1.5,2.2-2.2
		c0.8-0.7,1.6-0.7,2.4,0c1.9,1.8,3.8,3.7,5.6,5.6c3.7,3.7,7.4,7.4,11.1,11.1c2.3,2.3,4.6,4.6,6.9,6.9c0.3,0.3,0.6,0.7,0.8,1.1
		C97,49.6,97,49.9,97,50.2z"/>
	<path class="st0" d="M37.2,82.4c0.2-0.6,0.3-1.3,0.5-2.1c1.8-6.3,3.7-12.6,5.5-18.9c1.7-5.8,3.3-11.5,5-17.3s3.3-11.5,5-17.3
		c1-3.6,2.1-7.3,3.2-10.9c0.4-1.2,1-1.6,2.3-1.3c0.9,0.2,1.7,0.4,2.6,0.7c1.4,0.4,1.8,1.2,1.4,2.6c-2,6.8-3.9,13.6-5.9,20.4
		C55.2,43.9,53.6,49.4,52,55c-2,7.1-4.1,14.2-6.1,21.3c-0.7,2.5-1.4,4.9-2.1,7.3c-0.3,1.2-1,1.6-2.2,1.3c-1.1-0.3-2.2-0.6-3.3-1
		C37.5,83.7,37.3,83.1,37.2,82.4z"/>
</g>
</svg>
