<?xml version="1.0" encoding="utf-8"?>
<!-- Generator: Adobe Illustrator 22.0.0, SVG Export Plug-In . SVG Version: 6.00 Build 0)  -->
<svg version="1.1" id="Layer_1" xmlns="http://www.w3.org/2000/svg" xmlns:xlink="http://www.w3.org/1999/xlink" x="0px" y="0px"
	 viewBox="0 0 100 100" style="enable-background:new 0 0 100 100;" xml:space="preserve">
<style type="text/css">
	.st0{fill:#0051B4;}
</style>
<g>
	<path class="st0" d="M6.9,68.3c2.3-1,3.7-2.7,3.6-5.4C10.4,60.5,9,59,6.9,58.1c0.5-1.6,1.1-3.3,1.6-4.9c2.6,0.6,4.8,0,6.2-2.3
		c1.2-2,1-4-0.2-5.9c1.4-1,2.8-2.1,4.3-3.1c1.1,1.2,2.3,2,4,2.1c2.8,0.2,5.2-1.9,5.6-4.6c0-0.2,0.3-0.6,0.5-0.6c1.7,0,3.4,0,5.1,0
		c0.3,2.5,1.5,4.3,3.9,5c2.3,0.7,4.2-0.1,5.7-1.9c1.4,1,2.8,2.1,4.3,3.1c-1.3,2.1-1.4,4.2,0,6.3c1.4,2,3.5,2.5,5.9,2
		c0.5,1.7,1.1,3.3,1.6,4.9c-2.3,1-3.7,2.6-3.6,5.2c0,2.4,1.4,4,3.6,5c-0.5,1.7-1.1,3.3-1.6,5c-2.4-0.5-4.4,0-5.9,2
		c-1.4,2-1.3,4.1,0,6.2c-1.4,1-2.8,2.1-4.3,3.1c-1.7-1.9-3.8-2.7-6.2-1.7c-2.2,0.8-3.2,2.5-3.4,4.9c-1.8,0-3.5,0-5.3,0
		c-0.3-5.1-6.5-7.1-9.8-3.1c-1.4-1-2.9-2.1-4.3-3.1c1.4-2.2,1.5-4.3-0.1-6.4c-1.5-1.9-3.5-2.4-5.9-1.9C8,71.6,7.5,70,6.9,68.3z
		 M31.2,45.9c-9.5,0-17.3,7.6-17.4,16.9c-0.1,9.5,7.3,17.4,16.8,17.6c9.6,0.2,17.6-7.3,17.7-17C48.5,53.8,40.8,46,31.2,45.9z"/>
	<path class="st0" d="M43.7,40.7c-0.4-1.4-0.9-2.7-1.3-4c1.9-0.8,3-2.2,3-4.1c0-1.9-1.1-3.3-3-4.1c0.4-1.3,0.9-2.6,1.3-4
		c2,0.5,3.7,0,4.9-1.6s1.1-3.4,0-5.1c1.2-0.8,2.3-1.7,3.4-2.5c2.7,3.1,7.5,1.8,7.9-2.6c1.5,0,2.9,0,4.4,0c0.2,1.9,1.1,3.4,3,4
		c1.9,0.7,3.5,0.1,4.9-1.4c1.1,0.8,2.3,1.7,3.5,2.5c-1,1.7-1.2,3.4,0,5c1.1,1.7,2.8,2.2,4.8,1.7c0.4,1.3,0.9,2.7,1.3,4
		c-1.9,0.9-3.1,2.3-2.9,4.4c0.1,1.9,1.2,3.1,2.9,3.8c-0.4,1.3-0.8,2.6-1.3,4c-2-0.4-3.6,0-4.8,1.7c-1.1,1.6-1.1,3.3,0,5
		c-1.1,0.8-2.3,1.7-3.5,2.5c-1.3-1.4-2.9-2.1-4.8-1.5s-2.8,2.1-3,4c-1.5,0-2.9,0-4.3,0c-0.2-2.1-1.2-3.5-3.1-4.1
		c-1.9-0.6-3.4,0.1-4.7,1.6c-1.1-0.8-2.3-1.7-3.5-2.5c1-1.7,1.2-3.5,0-5.1C47.4,40.6,45.7,40.2,43.7,40.7z M76.1,32.5
		c0-7.8-6.3-14.1-14-14.1S48,24.8,48,32.4c0,7.7,6.3,14.1,14,14.1C69.8,46.6,76.1,40.2,76.1,32.5z"/>
	<path class="st0" d="M67.4,52.3c1-0.7,1.9-1.3,2.8-2c1.1,1.2,2.4,1.7,3.9,1.2s2.2-1.6,2.4-3.2c1.2,0,2.3,0,3.5,0
		c1.4,3.7,3.7,4.5,6.4,2.1c0.9,0.7,1.8,1.3,2.7,2c-1.6,2.4-0.1,6,3.9,5.5c0.3,1,0.7,2.1,1,3.1c-3.2,2.1-3.2,5,0,6.7
		c-0.3,1-0.7,2.1-1,3.2c-1.7-0.3-3.1,0.1-4,1.5c-0.8,1.3-0.7,2.5,0.1,3.9c-0.9,0.7-1.8,1.3-2.8,2c-1.1-1.1-2.3-1.7-3.9-1.2
		c-1.5,0.5-2.3,1.7-2.4,3.3c-1.2,0-2.3,0-3.4,0c-0.5-3.7-4.4-4.4-6.4-2c-0.9-0.7-1.8-1.3-2.8-2c0.8-1.4,0.9-2.8,0-4.1
		c-1-1.3-2.3-1.6-3.9-1.3c-0.3-1.1-0.7-2.1-1.1-3.2c1.4-0.7,2.3-1.6,2.4-3.3c0-1.6-0.8-2.7-2.3-3.4c0.3-1,0.7-2.1,1-3.2
		c1.5,0.3,2.9,0,3.9-1.3C68.3,55.2,68.2,53.8,67.4,52.3z M78.2,54.3c-5.5,0-10.1,4.5-10.1,10s4.5,10.1,9.9,10.1
		c5.7,0,10.3-4.5,10.3-10.1C88.3,58.8,83.8,54.3,78.2,54.3z"/>
</g>
</svg>
