<?xml version="1.0" encoding="utf-8"?>
<!-- Generator: Adobe Illustrator 22.0.0, SVG Export Plug-In . SVG Version: 6.00 Build 0)  -->
<svg version="1.1" id="Layer_1" xmlns="http://www.w3.org/2000/svg" xmlns:xlink="http://www.w3.org/1999/xlink" x="0px" y="0px"
	 viewBox="0 0 512 512" style="enable-background:new 0 0 512 512;" xml:space="preserve">
<style type="text/css">
	.st0{fill:#303030;}
</style>
<g>
	<path class="st0" d="M513.4,258.6c0,10.1,0,20.1,0,30.2c-0.3,1.6-0.8,3.2-0.9,4.8c-1.2,18.1-4,35.9-9.1,53.3
		c-17.6,60.2-57,98.6-116.6,116.8c-27.2,8.3-55.1,11.1-83.3,11c-31.7,0-63.3,0-95,0c-24.5,0-48.8-2-72.7-8.1
		c-27.9-7.1-53.7-18.6-75.8-37.5C26.6,400.5,9.8,363,2.7,320.5c-1.8-10.5-2.7-21.2-4-31.8c0-10.1,0-20.1,0-30.2
		c0.3-2,0.7-3.9,0.9-5.9c2.9-30.3,13.6-57.5,33-81c4.9-5.9,7.4-11.1,6.6-19.4c-2.5-25,1.1-49.8,6.9-74.2
		c3.2-13.4,7.7-26.5,11.9-40.9c13.5,4.1,26.1,7.4,38.3,11.8c30.5,11.2,58.6,27,85.6,44.9c2.1,1.4,5.2,1.9,7.7,1.6
		c11-1.2,21.8-3.5,32.8-4.3c33.5-2.4,66.9-2.2,100.1,4.3c2.4,0.5,5.6-0.3,7.7-1.6c27-17.8,55.1-33.7,85.6-44.8
		c12.3-4.5,25-7.7,37.5-11.5c10.1,25.6,16.3,50.8,18.7,76.7c1.2,13.1,1.8,26.5,0.7,39.6c-0.6,7.3,1.6,11.7,5.8,16.7
		c14.6,17.5,25,37.2,29.9,59.5C510.5,239.4,511.8,249.1,513.4,258.6z M256.2,450.2c17.9-0.6,35.9-0.8,53.7-1.9
		c21.8-1.3,43.3-4.3,64.1-11.2c17.1-5.6,32.4-14.1,45.3-27c27-27,31.3-84.8,17-113.3c-13.8-27.4-34.9-44.5-66-46.3
		c-18.8-1.1-37.8-0.6-56.7,0.5c-33.8,2.1-67.6,3.3-101.4,0.8c-23.9-1.8-47.8-4-71.8-1.4c-32.5,3.5-54.1,21.4-66.5,50.9
		c-8.8,21.1-7.4,43-3.2,64.7c5.5,27.8,20.7,48.5,45.9,61.9c14.6,7.8,30.3,12.4,46.5,15.4C193.8,449.4,225,449.8,256.2,450.2z"/>
	<path class="st0" d="M381.1,340.5c0.3,16.2-3.2,31.2-14.7,43.4c-11.9,12.7-29.5,13.1-42,1c-19.5-18.9-21.1-58.8-3.1-79.4
		c15.5-17.8,37.8-16,50.4,4.1C377.6,319.1,380.7,329.4,381.1,340.5z"/>
	<path class="st0" d="M203.5,341.4c-0.6,17.1-4.2,30.9-14.7,42.3c-12.3,13.2-30.7,13.4-43,0.4c-18.8-19.8-20-57.9-2.5-78.3
		c15.5-18.1,38.1-16.3,50.7,4C200.1,319.8,203.5,331.8,203.5,341.4z"/>
</g>
</svg>
