<?xml version="1.0" encoding="utf-8"?>
<!-- Generator: Adobe Illustrator 22.0.0, SVG Export Plug-In . SVG Version: 6.00 Build 0)  -->
<svg version="1.1" id="Layer_1" xmlns="http://www.w3.org/2000/svg" xmlns:xlink="http://www.w3.org/1999/xlink" x="0px" y="0px"
	 viewBox="0 0 512 512" style="enable-background:new 0 0 512 512;" xml:space="preserve">
<style type="text/css">
	.st0{fill:#FFFFFF;}
</style>
<g>
	<path class="st0" d="M0.3,370.6c0-76.2,0-152.3,0-228.5c0.3-3.2,0.6-6.3,0.9-9.5c1.7-16,5.9-31.3,12.7-45.8
		C29,55,52.3,31.1,83.8,15.4C99.2,7.7,115.5,3,132.6,1.2c3.3-0.3,6.6-0.6,9.8-0.9c75.9,0,151.9,0,227.8,0c0.7,0.1,1.4,0.2,2,0.3
		c12.5,0.7,24.7,2.8,36.5,6.7c36.1,11.9,63.9,34.3,83.3,67c10.7,18,17.1,37.6,19.3,58.4c0.3,3.1,0.6,6.2,0.9,9.4
		c0,76.2,0,152.3,0,228.5c-0.1,0.6-0.2,1.1-0.3,1.7c-0.9,16.8-4.6,32.9-11.1,48.3c-13.5,31.7-35.2,56.1-65.2,73
		c-17.3,9.8-36,15.6-55.8,17.8c-3.2,0.4-6.5,0.6-9.7,0.9c-75.9,0-151.9,0-227.8,0c-2.1-0.2-4.2-0.4-6.3-0.6
		c-16.9-1.4-33.1-5.6-48.4-12.7c-30-13.9-53.1-35.3-69.2-64.3c-9.4-17-15.1-35.3-17.2-54.6C0.9,376.9,0.6,373.7,0.3,370.6z
		 M39.7,256.2c0,35.6,0,71.2,0,106.9c0,8.1,0.8,16.2,2.5,24.1c10.7,49.4,54.1,85.6,105.7,85.7c71.7,0.2,143.5,0.1,215.2,0
		c6.3,0,12.7-0.5,18.9-1.5c20.2-3.2,38.2-11.6,53.5-25.2c24.8-22,37.4-49.9,37.4-83c0.1-71.2,0.1-142.4,0-213.6
		c0-4.4-0.2-8.8-0.7-13.1c-2.4-21.2-10.2-40.3-23.9-56.8C426.6,53.8,398.7,40,365,39.8c-71.6-0.4-143.2-0.1-214.9-0.1
		c-8.1,0-16.1,0.6-24,2.4c-31.7,7.1-55.9,24.7-72.2,52.8c-10.1,17.4-14.4,36.4-14.3,56.5C39.8,186.3,39.7,221.2,39.7,256.2z"/>
	<path class="st0" d="M118.5,256.3c0-76,62-137.9,138.2-137.8c75.6,0,137.7,62.3,137.6,137.9c-0.1,76-62.1,137.8-138.2,137.8
		C180.4,394.1,118.4,332,118.5,256.3z M157.8,256.4c0.1,54.5,43.9,98.4,98.5,98.4s98.6-44,98.5-98.6s-43.9-98.4-98.5-98.4
		C201.7,157.8,157.8,201.8,157.8,256.4z"/>
	<path class="st0" d="M404.1,79.1c16.3,0,29.6,13.4,29.5,29.7c-0.1,16.2-13.4,29.5-29.6,29.4c-16.3,0-29.6-13.4-29.5-29.7
		C374.5,92.2,387.8,79.1,404.1,79.1z"/>
</g>
</svg>
