<?xml version="1.0" encoding="utf-8"?>
<!-- Generator: Adobe Illustrator 22.0.0, SVG Export Plug-In . SVG Version: 6.00 Build 0)  -->
<svg version="1.1" id="Layer_1" xmlns="http://www.w3.org/2000/svg" xmlns:xlink="http://www.w3.org/1999/xlink" x="0px" y="0px"
	 viewBox="0 0 57.7 163.8" style="enable-background:new 0 0 57.7 163.8;" xml:space="preserve">
<style type="text/css">
	.st0{fill:#303030;}
</style>
<g>
	<path class="st0" d="M20.1,81.7c10.1,3.6,12.8,7.5,12.8,18c0,14-0.1,28,0,42c0,12,4.3,16.2,16.3,16.4c1.8,0,3.7,0,5.5,0.1
		c1.7,0.1,2.9,0.7,3,2.6c0.1,1.9-1,2.8-2.7,2.8c-7.6,0-15.4,0.9-22.9-0.7c-7.7-1.6-12.8-8.9-12.8-17.5c0-15.3,0-30.6,0-46
		c0-12.1-1.9-14.2-14-14.8c-1.2-0.1-2.3-0.1-3.5-0.4C0.4,83.9,0,82.8,0,81.5s0.7-2.2,2.1-2.3C3.9,79,5.8,79,7.6,78.8
		c9.7-1.4,11.6-3.4,11.6-13.3c0.1-15.2,0.1-30.3,0-45.5c0-13.2,6.1-19.7,19.3-20C43.7,0,48.8,0,54,0c1.7,0,3.5,0,3.6,2.4
		C57.8,5,56,5.4,54,5.5c-2.3,0.1-4.7,0.1-7,0.2C37.5,6.1,33.1,10.5,33,20c-0.1,14.7,0,29.3,0,44C32.9,74.4,30.4,78,20.1,81.7z"/>
</g>
</svg>
