<?xml version="1.0" encoding="utf-8"?>
<!-- Generator: Adobe Illustrator 22.0.0, SVG Export Plug-In . SVG Version: 6.00 Build 0)  -->
<svg version="1.1" id="Layer_1" xmlns="http://www.w3.org/2000/svg" xmlns:xlink="http://www.w3.org/1999/xlink" x="0px" y="0px"
	 viewBox="0 0 512 512" style="enable-background:new 0 0 512 512;" xml:space="preserve">
<style type="text/css">
	.st0{fill:#FFFFFF;}
</style>
<g>
	<path class="st0" d="M512.4,506.8c-33.8,0-66.8,0-100.4,0c0-1.9,0-4.1,0-6.2c0-57.3,0.1-114.5-0.1-171.8c0-8.3-0.8-16.8-2.3-24.9
		c-4.2-21.8-16.1-34.1-38.9-36.7c-14.2-1.6-29-0.9-43.2,1.2c-17.4,2.6-26.4,14.7-29,34.8c-0.9,6.8-1.3,13.7-1.4,20.5
		c-0.1,58.4-0.1,116.7-0.1,175.1c0,2.2,0,4.4,0,7.6c-34.4,0-68.5,0-103,0c0-112,0-224.5,0-338.1c32.5,0,65.1,0,98.3,0
		c0,17.2,0,34.9,0,53.8c7.7-6.7,14.3-12.7,21.2-18.4c43.1-35,91.3-40,142.1-21.8c34.8,12.5,51.8,40,55.6,76c0.8,7.9,1,15.9,1,23.9
		c0.1,72.3,0,144.6,0,216.9C512.4,501.1,512.4,503.3,512.4,506.8z"/>
	<path class="st0" d="M106.6,168.2c0,112.2,0,224.8,0,338.3c-34.2,0-68.3,0-102.7,0c0-112.2,0-224.8,0-338.3
		C38.1,168.2,72.2,168.2,106.6,168.2z"/>
	<path class="st0" d="M56.4,5.2c31.4,0,56.7,25.3,56.6,56.7c-0.1,31.3-25.7,56.6-57,56.4C24.9,118-0.2,92.9-0.4,61.8
		C-0.6,30.6,24.9,5.2,56.4,5.2z"/>
</g>
</svg>
