<?xml version="1.0" encoding="utf-8"?>
<!-- Generator: Adobe Illustrator 22.0.0, SVG Export Plug-In . SVG Version: 6.00 Build 0)  -->
<svg version="1.1" id="Layer_1" xmlns="http://www.w3.org/2000/svg" xmlns:xlink="http://www.w3.org/1999/xlink" x="0px" y="0px"
	 viewBox="0 0 57.7 163.8" style="enable-background:new 0 0 57.7 163.8;" xml:space="preserve">
<style type="text/css">
	.st0{fill:#303030;}
</style>
<g>
	<path class="st0" d="M37.5,82.1c-10.1-3.6-12.8-7.5-12.8-18c0-14,0.1-28,0-42c0-12-4.3-16.2-16.3-16.4c-1.8,0-3.7,0-5.5-0.1
		C1.3,5.6,0.1,5,0,3.1s1-2.8,2.7-2.8c7.6,0,15.4-0.9,22.9,0.7c7.7,1.6,12.8,8.9,12.8,17.5c0,15.3,0,30.6,0,46
		c0,12.1,1.9,14.2,14,14.8c1.2,0.1,2.3,0.1,3.5,0.4c1.3,0.3,1.8,1.4,1.7,2.7c0,1.3-0.7,2.2-2.1,2.3c-1.8,0.2-3.7,0.1-5.5,0.4
		c-9.7,1.4-11.6,3.4-11.6,13.3c-0.1,15.2-0.1,30.3,0,45.5c0,13.2-6.1,19.7-19.3,20c-5.2,0.1-10.3,0.1-15.5,0c-1.7,0-3.5,0-3.6-2.4
		c-0.1-2.6,1.7-3,3.6-3.1c2.3-0.1,4.7-0.1,7-0.2c9.5-0.4,14-4.8,14.1-14.4c0.1-14.7,0-29.3,0-44C24.8,89.4,27.3,85.9,37.5,82.1z"/>
</g>
</svg>
