<?xml version="1.0" encoding="utf-8"?>
<!-- Generator: Adobe Illustrator 22.0.0, SVG Export Plug-In . SVG Version: 6.00 Build 0)  -->
<svg version="1.1" id="Layer_1" xmlns="http://www.w3.org/2000/svg" xmlns:xlink="http://www.w3.org/1999/xlink" x="0px" y="0px"
	 viewBox="0 0 1000 1000" style="enable-background:new 0 0 1000 1000;" xml:space="preserve">
<style type="text/css">
	.st0{fill:none;stroke:#FFFFFF;stroke-width:4;stroke-miterlimit:10;}
</style>
<g>
	<path class="st0" d="M969.6,313L535.2,163.6c-27.1-9.8-21.4-9.9-48.2-0.1L50,311.6c-26.9,9.7-26.7,25.6,0.4,35.4l103.8,35.2
		c-46,44.5-49,90.9-49.6,144.6c-17.8,6.8-30.4,24.1-30.4,44.3c0,18.5,10.6,34.6,26.1,42.4C93,668,71.9,730.4,10,804.2
		c30.6,23.7,46.4,31.6,70.1,39.5c86.6-37.2,76-136,69.3-234.3c11.9-8.6,19.6-22.6,19.6-38.4c0-17-8.9-31.8-22.2-40.2
		c1.5-52.6,13-99.7,52.4-130.2c0.3-0.8,1.2-1.5,2.9-2.2l298.6-120.7c11.1-4.4,23.7,0.9,28.1,12l0.4,1c4.4,11.1-0.9,23.6-12,28.1
		L264.8,419.7l225.8,76.6c27.1,9.8,21.4,9.9,48.3,0.2L970,348.3C996.8,338.6,996.7,322.8,969.6,313z M490,553.6L216.6,461v69.7
		c14.3,13.1,22.2,31.9,22.2,52.8c0,18.8-6.6,35.8-17.6,48.6c3.6,10.9,9.9,21.6,18.9,25c159.1,87.9,379,87,555.8-8.9
		c13.1-10.9,23.3-24.5,23.3-37.5V457.1l-280.8,96.7C511.6,563.5,517,563.5,490,553.6z"/>
</g>
</svg>
