<?xml version="1.0" encoding="utf-8"?>
<!-- Generator: Adobe Illustrator 22.0.0, SVG Export Plug-In . SVG Version: 6.00 Build 0)  -->
<svg version="1.1" id="Layer_1" xmlns="http://www.w3.org/2000/svg" xmlns:xlink="http://www.w3.org/1999/xlink" x="0px" y="0px"
	 viewBox="0 0 560 560" style="enable-background:new 0 0 560 560;" xml:space="preserve">
<style type="text/css">
	.st0{display:none;}
	.st1{display:inline;fill:#1C75BC;}
	.st2{fill:#303030;}
</style>
<g id="Layer_2_1_" class="st0">
	<rect class="st1" width="560" height="560"/>
</g>
<g id="Vo5nj7_1_">
	<g>
		<path class="st2" d="M22.4,334.9c7.7-7.8,15-13.7,22.6-19.3c12.2-9.1,25.2-17,38.1-25.1c19.3-12.2,38.8-24.1,58.3-36
			c13.2-8,26.4-16.1,39.7-24.1c15.3-9.3,30.7-18.5,46.1-27.8c7.1-4.3,14.1-8.7,21.3-12.8c8.2-4.7,17-7.9,26.2-10.2
			c9.3-2.3,18.8-3.4,28.4-3.4c16.5,0.1,32.5,3.4,48,9.2c5.8,2.2,11.3,4.7,16.7,7.7c1.3,0.7,1.3,0.9,0,1.7
			c-16.9,10.1-33.7,20.1-50.6,30.2c-17.2,10.3-34.4,20.5-51.6,30.8c-13.9,8.3-27.7,16.7-41.7,24.8c-8,4.6-16.4,8.3-25,11.6
			c-12.5,4.8-25.5,7.4-38.8,8.9c-9.3,1-18.4,2.6-27.3,5.6c-5.2,1.8-10.3,4-15.2,6.5c-1.7,0.9-3.3,1.9-4.4,3.5
			c-2.3,3.2-2.3,6.9,0.1,10.4c2.4,3.5,5,6.9,7,10.7c5.4,10.6,6.7,21.6,3.7,33.1c-2.2,8.3-6.3,15.5-11.6,22.2c-2.4,3-4.9,6-7.7,8.6
			c-9.9,9.4-20.8,17.5-33.7,22.5c-10.2,4-20.6,5.6-31.5,3.2c-6.8-1.5-12.8-4.5-18.2-8.8c-7.6-6-13.3-13.4-17.3-22.2
			c-5.2-11.3-5.2-22.8-0.6-34.4c2.9-7.2,7.1-13.6,12-19.5C17.8,339.6,20.6,336.6,22.4,334.9z M86.9,382.2c4-3.9,7.5-8.2,9.8-13.2
			c3.1-6.6,3.3-13.1-0.3-19.6c-1.9-3.3-4.4-6.1-7.2-8.6c-3.3-3-7.2-4.6-11.7-4.9c-6.6-0.4-12.6,1.8-18.3,4.9
			c-6.8,3.7-12.8,8.3-18.5,13.5c-4.2,3.9-8,8.1-10.8,13.1c-3.4,6-4.6,12.3-1.7,18.9c1.9,4.3,4.9,7.9,8.3,11.1
			c2.4,2.2,5.2,3.7,8.4,4.5c5.9,1.4,11.4,0.2,16.8-2.1C71.4,395.7,79.5,389.3,86.9,382.2z M119.9,294c5,5,13.1,5.1,18.1,0.1
			c5-4.9,5-13.2,0.2-18.2c-4.9-4.9-13.3-5-18.2-0.1C115,280.9,114.9,289.1,119.9,294z"/>
		<path class="st2" d="M154.3,328c-0.3-0.4-0.9-0.4-0.8-0.9s0.7-0.5,1.1-0.6c7.1-2.1,14.4-3.3,21.7-4.7c17.1-3.3,33.5-8.9,49.2-16.4
			c1.1-0.5,1.9-0.5,2.9,0.3c8.5,6.4,17,12.7,25.5,19c9.5,7.1,19,14.2,28.5,21.3c10.4,7.7,20.8,15.4,31.2,23.2
			c9,6.7,18,13.5,27.1,20.2c4,3,8.1,6,12.2,9c1.2,0.9,1.2,1.1-0.2,1.7c-9.2,3.9-18.8,6.4-28.7,8.1c-19.2,3.3-38.3,2.8-57.1-2.6
			c-11.6-3.3-22.5-8.4-32.4-15.4c-5.2-3.6-10.1-7.7-15.1-11.6c-4.5-3.5-9-6.9-13.5-10.4c-4.7-3.6-9.4-7.2-14-10.9
			c-4.8-3.7-9.6-7.5-14.4-11.2c-4.2-3.3-8.4-6.5-12.5-9.8C161.4,333.5,157.8,330.7,154.3,328z"/>
		<path class="st2" d="M107.4,152.7c7.5,7.2,13.5,14.9,18,23.7c4.5,8.6,7.1,17.7,6.7,27.4c-0.4,8.8-3.4,16.8-8.4,24
			c-2.2,3.2-4.8,6.1-7.7,8.8c-0.9,0.9-1.7,1.9-2.5,2.9c-1.9,2.6-1.6,5.2,0.8,7.7c1.6,1.6,1.5,1.6-0.4,2.8
			c-10.2,6.4-20.4,12.8-30.6,19.2c-0.9,0.6-1.6,0.7-2.5-0.1c-6.7-5.4-13.6-10.5-20.2-16c-5.4-4.4-10.6-9.1-15.7-14
			c-3-2.8-5.8-5.7-8.6-8.7c-8.2-8.8-15.7-18.2-21-29.1c-3.3-6.8-5.6-13.9-5.9-21.5c-0.5-9.5,2.2-18.2,7.5-26
			c5.5-8.1,12.3-14.9,20.9-19.6c10.3-5.6,21.2-6.9,32.5-4.2c9.3,2.2,17.6,6.6,25.2,12.3C100,145.6,104.1,149.1,107.4,152.7z
			 M88.5,170.8c-1.2-1.1-3.1-3.1-5.2-4.9c-4.2-3.5-8.7-6.7-13.8-8.8c-6.3-2.6-12.8-3.3-19.1,0.1c-4.5,2.4-8.1,6.1-10.9,10.3
			c-4.2,6.2-4.1,13-1.5,19.8c2.7,7,7.3,12.8,12.4,18.3c2.3,2.5,4.8,4.9,7.4,7.1c4.8,4.2,9.9,7.9,15.9,10.3
			c6.8,2.6,13.5,2.6,19.9-1.5c2.7-1.8,4.9-4.2,7.1-6.6c2.7-2.9,4.4-6.3,5-10.3c0.8-5.4-0.5-10.4-2.9-15.1
			C99.5,182.6,94.7,176.9,88.5,170.8z"/>
	</g>
</g>
</svg>
